<?xml version="1.0" encoding="utf-8"?>
<!-- Generator: Adobe Illustrator 19.2.1, SVG Export Plug-In . SVG Version: 6.00 Build 0)  -->
<svg version="1.1" id="layer" xmlns="http://www.w3.org/2000/svg" xmlns:xlink="http://www.w3.org/1999/xlink" x="0px" y="0px"
	 viewBox="0 0 652 652" style="enable-background:new 0 0 652 652;" xml:space="preserve">
<style type="text/css">
	.st0{fill:#017DFF;}
	.st1{fill:#012DB8;}
	.st2{fill:#70BAF7;}
	.st3{fill:#FEFEFF;}
</style>
<path class="st0" d="M39.2,328.7c0.7,5.3,2.2,10.2,4.3,14.9c2.2,4.9,5.1,9.3,8.7,13.3c4.2,4.8,9.1,8.7,14.7,11.7
	c5.3,2.9,10.9,4.8,16.9,5.8c2,0.3,4,0.4,6.1,0.6c1.1,0.1,2.2,0.2,3.3,0.2c7.3-0.2,14.4-1.6,21.2-4.6c4-1.8,7.7-4,11.2-6.6
	c3.9-2.9,8.8-2.3,11.7,1.6c2.5,3.3,2.1,8.3-1.4,11.1c-7.4,5.8-15.7,10-24.8,12.4c-4,1.1-8.1,1.9-12.2,2.1c-3.2,0.2-6.5,0.4-9.7,0.2
	c-6.6-0.3-13-1.6-19.3-3.7c-8.6-3-16.3-7.5-23.2-13.4c-4.7-4.1-8.8-8.7-12.2-13.9c-4.7-7-8-14.7-10-22.9c-0.9-3.9-1.6-7.8-1.7-11.8
	c-0.1-2.6-0.3-5.2-0.1-7.8c0.5-9.3,2.6-18.1,6.6-26.6c3-6.3,6.8-12,11.4-17.1c6.5-7.2,14.1-12.9,22.9-16.9
	c6.4-2.9,13.2-4.9,20.2-5.7c2-0.2,4-0.4,5.9-0.5c1.5-0.1,3.1-0.2,4.6-0.2c9.7,0.3,19.1,2.3,27.9,6.5c4.9,2.3,9.5,5.1,13.7,8.4
	c2.5,1.9,3.6,5.3,2.6,8.6c-1,3.2-3.2,5.1-6.5,5.7c-2.3,0.4-4.4-0.2-6.3-1.6c-4.7-3.6-9.9-6.4-15.5-8.4c-3.9-1.3-7.9-2.2-12-2.6
	c-3.2-0.3-6.3-0.3-9.5-0.1c-3.3,0.2-6.6,0.8-9.8,1.7c-8.1,2.2-15.3,6-21.6,11.5c-7,6.1-12.2,13.6-15.4,22.4
	c-1.5,4.1-2.5,8.2-2.9,12.6c-0.2,2.2-0.4,4.4-0.4,6.6C38.6,324.2,39,326.4,39.2,328.7z"/>
<path class="st1" d="M107.8,297.5c-5.6-3.5-11.6-4.9-18-4.3c-6.4,0.7-12,3.3-16.7,7.8c-3.8,3.7-6.3,8.1-7.7,13.2
	c-0.5,1.8-0.7,3.7-0.8,5.5c-0.2,3.9,0.4,7.7,1.8,11.3c1.3,3.4,3.2,6.4,5.6,9.1c3.1,3.4,6.9,5.9,11.2,7.5c2.3,0.8,4.6,1.3,7,1.5
	c9,0.7,16.6-2.3,22.9-8.7c2.9-3,4.9-6.5,6.3-10.5c0.1-0.1,0-0.3,0.1-0.6c-0.5,0-0.9,0-1.3,0c-5.7,0-11.4-0.1-17.1,0
	c-4.1,0.1-8.1-2.8-8.4-7.8c-0.3-4.2,2.7-7.7,6.7-8.4c0.9-0.2,1.9-0.2,2.8-0.2c8.9,0,17.8,0,26.6,0c4,0,7.3,2.5,8.1,6.4
	c0.3,1.6,0.2,3.3,0.1,5c-0.7,9.5-4.1,18-10.2,25.3c-6,7.1-13.5,12-22.5,14.4c-3.1,0.8-6.3,1.3-9.5,1.5c-7.9,0.4-15.3-1.2-22.2-4.7
	c-8.6-4.4-15.1-10.9-19.5-19.5c-2.5-4.8-4-9.9-4.6-15.3c-1.2-12.4,1.9-23.6,9.8-33.3c6.8-8.3,15.5-13.3,26.1-15.2
	c3.9-0.7,7.8-0.9,11.8-0.6c7.4,0.6,14.2,2.8,20.5,6.8c3.3,2.1,4.5,6.6,2.8,10.1c-1.6,3.6-5.7,5.6-9.5,4.5
	C109.3,298.1,108.6,297.8,107.8,297.5z M239.6,354.5c-2.3-2-4.2-4.2-6-6.5c-4.1-5.3-6.7-11.2-7.9-17.8c-0.8-4.3-1-8.7-0.7-13.1
	c0.8-9.7,4.4-18.2,10.9-25.4c6.5-7.3,14.5-12,24.1-13.9c4.6-0.9,9.2-1.1,13.8-0.7c9.8,0.9,18.4,4.5,25.7,11.1
	c1.9,1.8,3.6,3.7,5.2,5.8c1.5,1.9,1.3,5.2-1.4,6.7c-2.1,1.1-4.1,2.4-6.1,3.5c-1.9,1.1-4.2,0.6-5.6-1.2c-4.6-5.9-10.7-9.2-18.1-10.1
	c-6.1-0.7-12-0.1-17.4,2.8c-7,3.6-11.7,9.3-14,16.9c-1,3.4-1.4,6.9-1.2,10.4c0.3,6.4,2.3,12.3,6.6,17.2c4.9,5.6,11.1,8.9,18.5,9.9
	c9.1,1.1,16.9-1.8,23.8-7.6c4-3.4,6.4-7.8,7.5-12.9c0-0.2,0-0.4,0-0.7c-0.5,0-0.9,0-1.4,0c-7.1,0-14.2,0-21.3,0
	c-0.6,0-1.3-0.1-1.9-0.2c-1.9-0.4-3.3-1.9-3.3-3.9c0-2.2,0-4.4,0-6.6c0-2.1,1.7-3.8,3.7-4c0.2,0,0.5,0,0.7,0c11.2,0,22.4,0,33.6,0
	c2.4,0,4.1,1.1,5.2,3.2c0.3,0.6,0.5,1.2,0.5,1.9c0,6.1-0.2,12.2-2.4,18c-1.7,4.7-3.9,9.1-7.1,12.9c-3.1,3.7-7,6.7-11.2,9.1
	c-5,2.8-10.2,4.8-15.9,5.7c-3.1,0.5-6.2,0.7-9.3,0.5c-3-0.2-6-0.6-8.9-1.2c-6.9-1.6-13-4.6-18.3-9.3
	C239.9,354.8,239.8,354.7,239.6,354.5z M465,307.2c0-2.6,0.1-5.1,0-7.5c-0.1-2.1,1.5-3.8,3.8-3.8c2.9,0.1,5.8,0,8.7,0
	c2.3,0,3.8,1.7,3.8,3.7c0,20.5,0,40.9,0,61.4c0,2.3-1.3,3.6-3.6,3.6c-3,0-6,0-9,0c-2.2,0-3.5-1.3-3.6-3.5c0-1.7,0-3.5,0-5.3
	c-0.6,0-0.8,0.5-1.1,0.8c-3,3-6.4,5.4-10.3,7c-2.5,1.1-5.2,1.7-7.9,1.9c-5.8,0.6-11.3-0.5-16.5-3.1c-5.3-2.6-9.5-6.6-12.7-11.7
	c-3.1-5-4.9-10.4-5.5-16.3c-0.7-7.2,0-14.2,3-20.9c4.6-10.1,12.4-16.4,23.4-18.4c5.1-0.9,10.2-0.7,15.1,1c4.2,1.5,7.7,3.8,10.3,7.4
	c0.7,0.9,1.1,2,1.7,3C464.6,307,464.8,307.1,465,307.2 M427.2,327.7c-0.2,2.4-0.1,4.9,0.4,7.3c0.9,4.1,2.6,7.9,5.5,11
	c3.6,3.8,8,5.6,13.2,5.5c5.5-0.1,10-2.3,13.6-6.3c3.4-3.8,4.8-8.4,5-13.4c0.2-3.1-0.2-6.2-1.1-9.1c-1.9-5.8-5.6-9.9-11.3-12.2
	c-3-1.2-6-1.5-9.2-1c-2,0.3-4,0.8-5.8,1.8C431.1,314.7,428.1,320.4,427.2,327.7z M344.4,302.9c-3.6,4.7-5.5,10-5.9,15.8
	c-0.3,4.1,0.1,8,1.3,11.9c1.2,4.2,3.5,7.9,6.5,11c4.7,4.9,10.6,7.3,17.3,8c4.6,0.5,9.2,0,13.5-1.7c4.8-1.8,8.7-4.7,11.6-9
	c1.3-1.8,2.9-2.3,4.8-1.3c2.6,1.4,5.3,2.9,7.8,4.5c1.9,1.1,2.3,3.2,1,5.1c-3.1,4.8-7.2,8.6-12,11.6c-5,3.2-10.5,5.2-16.3,6.1
	c-2.8,0.4-5.7,0.7-8.6,0.5c-6-0.3-11.8-1.3-17.4-3.8c-4.4-2-8.3-4.6-11.8-7.9c-3.7-3.5-6.8-7.5-9.1-12c-1.9-3.6-3.1-7.4-3.9-11.4
	c-0.8-4.3-1.1-8.7-0.7-13.1c0.8-10,4.3-18.7,11.1-26.2c7-7.7,15.6-12.2,25.8-13.7c3.8-0.6,7.7-0.7,11.6-0.4
	c9.5,0.8,17.9,4.4,25.1,10.8c2.3,2.1,4.3,4.4,6.1,6.9c1.6,2.2,0.7,4.5-1.3,5.6c-2.4,1.3-4.7,2.7-7.1,4.1c-1.4,0.8-2.8,1-4.1,0
	c-0.3-0.2-0.6-0.5-0.8-0.9c-4-6-9.7-9.5-16.7-10.6c-8.3-1.4-16,0-22.9,5.1C347.4,299.5,345.9,301.1,344.4,302.9z M566.2,364.6
	c-1.3,0-2.5-0.1-3.7,0c-1.6,0.1-3.4-1.6-3.2-3.3c0-0.2,0-0.5,0-0.7c0-27.8,0-55.7,0-83.5c0-0.2,0-0.5,0-0.7c0-1.8,1.4-3.2,3.2-3.2
	c3.2,0,6.4,0,9.7,0c1.7,0,3.2,1.5,3.2,3.5c-0.1,8.2,0,16.5,0,24.7c0,0.4,0,0.9,0,1.5c0.2-0.1,0.4-0.1,0.5-0.2c3.6-3.1,7.8-5,12.5-6
	c1.8-0.4,3.6-0.5,5.4-0.6c4.7-0.2,9.1,0.5,13.4,2.4c5.1,2.3,8.9,5.9,11.5,10.8c2.4,4.5,3.6,9.3,3.6,14.4c0.1,12.3,0.1,24.7,0.2,37
	c0,0.5-0.1,1.1-0.2,1.6c-0.4,1.4-1.6,2.3-3.1,2.3c-3.1,0-6.3,0-9.4,0c-1.8,0-3.1-1.3-3.3-3.1c0-0.3,0-0.7,0-1c0-11.2,0-22.3,0-33.5
	c0-4-0.8-7.8-2.9-11.2c-2.4-3.9-5.9-6-10.4-6.6c-3.1-0.4-6.1,0-8.9,1.3c-3.2,1.5-5.4,4.1-6.9,7.3c-1.1,2.4-1.7,5-1.7,7.7
	c-0.1,11.8-0.1,23.6-0.2,35.4c0,0.6,0,1.2-0.2,1.7c-0.6,1.2-1.5,2-3,1.9C570.2,364.6,568.3,364.6,566.2,364.6z M527.2,311.1
	c-2.8-2.1-6-2.5-9.2-2.3c-1.8,0.1-3.6,0.4-5.2,1.2c-2.2,1-3.6,2.7-3.5,5.2c0,1.5,0.7,2.6,1.8,3.6c1.4,1.3,3.1,2.1,4.9,2.7
	c3.3,1.1,6.7,2,10,3c3.8,1.1,7.5,2.3,11,4.2c3.7,2,6.8,4.5,8.6,8.3c3.2,6.6,2.2,15-3.1,20.6c-3.6,3.8-8.1,6-13.2,7.2
	c-3.4,0.8-6.8,1.1-10.3,0.9c-7.1-0.4-13.7-2.4-19.2-7c-4-3.4-6.7-7.6-7.6-12.9c-0.3-1.7,0.8-3.4,2.5-3.8c0.5-0.1,1.1-0.2,1.7-0.2
	c2.7,0,5.5,0,8.2,0c0.5,0,1,0.1,1.6,0.2c1.2,0.2,2.1,1,2.5,2.1c1.4,4.4,4.7,6.5,8.9,7.4c3.3,0.7,6.6,0.4,9.8-0.9
	c1.5-0.6,2.8-1.6,3.6-3.1c1-1.9,0.7-4.5-1.2-6.1c-1.7-1.3-3.5-2.2-5.5-2.8c-3.7-1.1-7.4-2.1-11.1-3.2c-3.7-1.1-7.3-2.3-10.6-4.2
	c-2.6-1.5-4.8-3.3-6.5-5.8c-2-2.9-2.9-6.2-2.9-9.6c-0.1-6.8,2.9-11.9,8.3-15.8c3.7-2.6,7.8-4,12.2-4.7c3-0.5,6.1-0.6,9.1-0.4
	c5.4,0.4,10.5,1.7,15,4.9c4.7,3.4,7.4,8.1,8.6,13.7c0.1,0.4,0.2,0.9,0.2,1.3c0.1,2-1.4,3.6-3.4,3.7c-3.1,0-6.2,0-9.3,0
	c-1.7,0-2.9-0.9-3.4-2.5C529.8,314.1,528.8,312.5,527.2,311.1z"/>
<path class="st2" d="M172.8,322c0-9.3-1.4-18.2-4.4-26.9c-1.1-3.2-2.4-6.3-3.9-9.3c-0.8-1.5-1.2-3.1-1.2-4.8
	c0.1-3.7,3.1-7.1,6.8-7.7c4.3-0.6,7.4,1.9,8.7,4.6c3.9,8,6.8,16.3,8.5,25c0.8,4,1.4,7.9,1.5,11.9c0.1,3.9,0.3,7.7,0.1,11.6
	c-0.3,5.6-1.1,11.2-2.4,16.7c-1.8,7.5-4.4,14.7-7.9,21.6c-2.3,4.5-8.7,6.3-13,2.2c-2.5-2.4-3.2-6-1.5-9.4c2.1-4.2,3.9-8.5,5.2-13
	c1.1-3.7,2-7.4,2.5-11.2c0.3-2.6,0.5-5.2,0.8-7.9C172.7,324.4,172.7,323.3,172.8,322z M141,294.7c0.1-0.4,0.1-0.7,0.2-1.1
	c0.6-3.3,3.7-6,6.8-6.4c4.6-0.5,7.5,2.3,8.8,5.1c2.1,4.9,3.8,9.9,4.8,15.2c0.4,2.2,0.7,4.4,0.9,6.6c0.2,2.5,0.4,5,0.4,7.5
	c0,5-0.6,10-1.7,14.8c-1.1,4.8-2.6,9.5-4.7,14c-1.3,2.9-3.6,4.5-6.7,4.8c-3.3,0.3-5.9-1-7.6-3.8c-1.6-2.5-1.6-5.2-0.3-7.9
	c2.1-4.5,3.4-9.1,4.2-14c0.7-4.2,0.8-8.4,0.5-12.6c-0.5-6.3-2-12.3-4.7-18.1C141.3,297.6,141,296.2,141,294.7z"/>
<path class="st3" d="M427.3,327.6c0.8-7.2,3.8-12.9,10.3-16.4c1.8-1,3.8-1.5,5.8-1.8c3.2-0.5,6.2-0.1,9.2,1
	c5.7,2.2,9.4,6.4,11.3,12.2c1,3,1.3,6,1.1,9.1c-0.3,5-1.7,9.6-5,13.4c-3.6,4.1-8.1,6.2-13.6,6.3c-5.2,0.1-9.6-1.7-13.2-5.5
	c-2.9-3.1-4.6-6.8-5.5-11C427.1,332.5,427,330.1,427.3,327.6z"/>
</svg>
